<svg xmlns="http://www.w3.org/2000/svg" version="1.1" xmlns:xlink="http://www.w3.org/1999/xlink" xmlns:svgjs="http://svgjs.com/svgjs" width="2000" height="560" preserveAspectRatio="none" viewBox="0 0 2000 560"><g mask="url(&quot;#SvgjsMask1956&quot;)" fill="none"><path d="M694 480L971 757" stroke-width="10" stroke="url(#SvgjsLinearGradient1957)" stroke-linecap="round" class="BottomRight"></path><path d="M949 408L735 194" stroke-width="8" stroke="url(#SvgjsLinearGradient1957)" stroke-linecap="round" class="BottomRight"></path><path d="M571 416L837 682" stroke-width="10" stroke="url(#SvgjsLinearGradient1958)" stroke-linecap="round" class="TopLeft"></path><path d="M1570 125L1936 491" stroke-width="10" stroke="url(#SvgjsLinearGradient1957)" stroke-linecap="round" class="BottomRight"></path><path d="M690 257L384 -49" stroke-width="6" stroke="url(#SvgjsLinearGradient1957)" stroke-linecap="round" class="BottomRight"></path><path d="M936 212L1355 631" stroke-width="10" stroke="url(#SvgjsLinearGradient1958)" stroke-linecap="round" class="TopLeft"></path><path d="M18 197L-248 -69" stroke-width="10" stroke="url(#SvgjsLinearGradient1957)" stroke-linecap="round" class="BottomRight"></path><path d="M376 199L128 -49" stroke-width="8" stroke="url(#SvgjsLinearGradient1958)" stroke-linecap="round" class="TopLeft"></path><path d="M1132 252L838 -42" stroke-width="8" stroke="url(#SvgjsLinearGradient1958)" stroke-linecap="round" class="TopLeft"></path><path d="M128 196L-291 -223" stroke-width="8" stroke="url(#SvgjsLinearGradient1958)" stroke-linecap="round" class="TopLeft"></path><path d="M929 195L643 -91" stroke-width="8" stroke="url(#SvgjsLinearGradient1958)" stroke-linecap="round" class="TopLeft"></path><path d="M1770 166L1543 -61" stroke-width="10" stroke="url(#SvgjsLinearGradient1958)" stroke-linecap="round" class="TopLeft"></path><path d="M410 519L606 715" stroke-width="10" stroke="url(#SvgjsLinearGradient1957)" stroke-linecap="round" class="BottomRight"></path><path d="M1513 538L1692 717" stroke-width="6" stroke="url(#SvgjsLinearGradient1957)" stroke-linecap="round" class="BottomRight"></path><path d="M1633 433L2027 827" stroke-width="10" stroke="url(#SvgjsLinearGradient1958)" stroke-linecap="round" class="TopLeft"></path><path d="M722 320L315 -87" stroke-width="8" stroke="url(#SvgjsLinearGradient1958)" stroke-linecap="round" class="TopLeft"></path><path d="M1162 536L856 230" stroke-width="8" stroke="url(#SvgjsLinearGradient1958)" stroke-linecap="round" class="TopLeft"></path><path d="M503 123L853 473" stroke-width="6" stroke="url(#SvgjsLinearGradient1958)" stroke-linecap="round" class="TopLeft"></path><path d="M1409 92L1165 -152" stroke-width="8" stroke="url(#SvgjsLinearGradient1958)" stroke-linecap="round" class="TopLeft"></path><path d="M1388 528L1574 714" stroke-width="8" stroke="url(#SvgjsLinearGradient1958)" stroke-linecap="round" class="TopLeft"></path><path d="M1681 6L1360 -315" stroke-width="10" stroke="url(#SvgjsLinearGradient1957)" stroke-linecap="round" class="BottomRight"></path><path d="M1917 192L1533 -192" stroke-width="6" stroke="url(#SvgjsLinearGradient1958)" stroke-linecap="round" class="TopLeft"></path><path d="M1113 81L734 -298" stroke-width="10" stroke="url(#SvgjsLinearGradient1958)" stroke-linecap="round" class="TopLeft"></path><path d="M454 103L845 494" stroke-width="10" stroke="url(#SvgjsLinearGradient1957)" stroke-linecap="round" class="BottomRight"></path><path d="M920 120L1157 357" stroke-width="6" stroke="url(#SvgjsLinearGradient1957)" stroke-linecap="round" class="BottomRight"></path><path d="M1197 414L823 40" stroke-width="6" stroke="url(#SvgjsLinearGradient1957)" stroke-linecap="round" class="BottomRight"></path><path d="M1972 255L1622 -95" stroke-width="8" stroke="url(#SvgjsLinearGradient1957)" stroke-linecap="round" class="BottomRight"></path><path d="M307 463L142 298" stroke-width="6" stroke="url(#SvgjsLinearGradient1958)" stroke-linecap="round" class="TopLeft"></path><path d="M1575 73L1888 386" stroke-width="8" stroke="url(#SvgjsLinearGradient1958)" stroke-linecap="round" class="TopLeft"></path><path d="M714 272L965 523" stroke-width="8" stroke="url(#SvgjsLinearGradient1957)" stroke-linecap="round" class="BottomRight"></path><path d="M693 229L331 -133" stroke-width="6" stroke="url(#SvgjsLinearGradient1957)" stroke-linecap="round" class="BottomRight"></path><path d="M1525 10L1276 -239" stroke-width="6" stroke="url(#SvgjsLinearGradient1957)" stroke-linecap="round" class="BottomRight"></path><path d="M1614 302L1944 632" stroke-width="6" stroke="url(#SvgjsLinearGradient1957)" stroke-linecap="round" class="BottomRight"></path><path d="M1558 43L1194 -321" stroke-width="6" stroke="url(#SvgjsLinearGradient1957)" stroke-linecap="round" class="BottomRight"></path><path d="M196 524L-8 320" stroke-width="8" stroke="url(#SvgjsLinearGradient1957)" stroke-linecap="round" class="BottomRight"></path><path d="M1596 74L1789 267" stroke-width="10" stroke="url(#SvgjsLinearGradient1957)" stroke-linecap="round" class="BottomRight"></path><path d="M1468 467L1787 786" stroke-width="8" stroke="url(#SvgjsLinearGradient1957)" stroke-linecap="round" class="BottomRight"></path><path d="M792 327L1147 682" stroke-width="8" stroke="url(#SvgjsLinearGradient1958)" stroke-linecap="round" class="TopLeft"></path><path d="M1982 377L1734 129" stroke-width="8" stroke="url(#SvgjsLinearGradient1957)" stroke-linecap="round" class="BottomRight"></path><path d="M1539 339L1265 65" stroke-width="8" stroke="url(#SvgjsLinearGradient1957)" stroke-linecap="round" class="BottomRight"></path><path d="M1659 173L1398 -88" stroke-width="6" stroke="url(#SvgjsLinearGradient1958)" stroke-linecap="round" class="TopLeft"></path><path d="M1519 365L1794 640" stroke-width="10" stroke="url(#SvgjsLinearGradient1958)" stroke-linecap="round" class="TopLeft"></path><path d="M1770 298L1519 47" stroke-width="10" stroke="url(#SvgjsLinearGradient1957)" stroke-linecap="round" class="BottomRight"></path><path d="M1799 306L2107 614" stroke-width="8" stroke="url(#SvgjsLinearGradient1958)" stroke-linecap="round" class="TopLeft"></path><path d="M1626 128L1305 -193" stroke-width="8" stroke="url(#SvgjsLinearGradient1958)" stroke-linecap="round" class="TopLeft"></path><path d="M1894 325L2196 627" stroke-width="8" stroke="url(#SvgjsLinearGradient1957)" stroke-linecap="round" class="BottomRight"></path><path d="M1576 409L1201 34" stroke-width="10" stroke="url(#SvgjsLinearGradient1958)" stroke-linecap="round" class="TopLeft"></path><path d="M437 331L234 128" stroke-width="10" stroke="url(#SvgjsLinearGradient1958)" stroke-linecap="round" class="TopLeft"></path><path d="M1459 102L1278 -79" stroke-width="8" stroke="url(#SvgjsLinearGradient1958)" stroke-linecap="round" class="TopLeft"></path><path d="M1932 352L2196 616" stroke-width="6" stroke="url(#SvgjsLinearGradient1958)" stroke-linecap="round" class="TopLeft"></path><path d="M1095 152L933 -10" stroke-width="8" stroke="url(#SvgjsLinearGradient1958)" stroke-linecap="round" class="TopLeft"></path><path d="M291 303L-25 -13" stroke-width="10" stroke="url(#SvgjsLinearGradient1957)" stroke-linecap="round" class="BottomRight"></path></g><defs><mask id="SvgjsMask1956"><rect width="2000" height="560" fill="#ffffff"></rect></mask><linearGradient x1="0%" y1="0%" x2="100%" y2="100%" id="SvgjsLinearGradient1957"><stop stop-color="rgba(26, 100, 73, 0)" offset="0"></stop><stop stop-color="rgba(26, 100, 73, 1)" offset="1"></stop></linearGradient><linearGradient x1="100%" y1="100%" x2="0%" y2="0%" id="SvgjsLinearGradient1958"><stop stop-color="rgba(26, 100, 73, 0)" offset="0"></stop><stop stop-color="rgba(26, 100, 73, 1)" offset="1"></stop></linearGradient></defs></svg>